<?xml version="1.0" encoding="UTF-8" standalone="no"?>
<svg
   width="174"
   height="40"
   viewBox="0 0 174 40"
   fill="none"
   version="1.1"
   id="svg100"
   sodipodi:docname="logo_beta3.svg"
   inkscape:version="1.2.2 (b0a8486541, 2022-12-01)"
   inkscape:export-filename="logo_beta.png"
   inkscape:export-xdpi="96"
   inkscape:export-ydpi="96"
   xmlns:inkscape="http://www.inkscape.org/namespaces/inkscape"
   xmlns:sodipodi="http://sodipodi.sourceforge.net/DTD/sodipodi-0.dtd"
   xmlns="http://www.w3.org/2000/svg"
   xmlns:svg="http://www.w3.org/2000/svg">
  <defs
     id="defs104" />
  <sodipodi:namedview
     id="namedview102"
     pagecolor="#ffffff"
     bordercolor="#000000"
     borderopacity="0.25"
     inkscape:showpageshadow="2"
     inkscape:pageopacity="0.0"
     inkscape:pagecheckerboard="true"
     inkscape:deskcolor="#d1d1d1"
     showgrid="false"
     inkscape:zoom="7.8303032"
     inkscape:cx="116.27902"
     inkscape:cy="22.604489"
     inkscape:window-width="1872"
     inkscape:window-height="1052"
     inkscape:window-x="48"
     inkscape:window-y="0"
     inkscape:window-maximized="1"
     inkscape:current-layer="svg100" />
  <path
     d="m 9.03978,6.58087 c 0.09533,0.7176 0.61081,1.39843 1.38232,1.59535 2.1147,0.54093 2.5667,-2.17167 1.8183,-3.94462 0.985,1.72942 0.7535,3.55109 -0.6943,5.46501 C 14.8961,6.34019 14.107,2.54571 10.1398,0 10.8722,1.75811 10.308,2.81998 9.74636,3.87727 9.31983,4.68015 8.89471,5.48039 9.03978,6.58087 Z"
     fill="white"
     id="path70"
     style="fill:#ffffff;fill-opacity:1" />
  <path
     d="m 13.2909,9.67458 c 0.726,-0.94786 1.5335,-2.00215 2.4971,-2.69422 2.2222,-1.59568 3.9613,-0.62116 5.7432,0.37737 1.4983,0.83963 3.0269,1.69624 4.8986,1.05598 -2.7432,4.03329 -5.8819,4.82789 -9.4218,3.11709 -1.7381,-0.8386 -3.0407,-0.4235 -4.2717,0.5541 l -5.41962,5.7212 6.81362,9.8746 H 10.2434 L 4.98449,19.9928 3.31537,21.6961 v 5.9846 H 0 V 11.223 h 3.31537 v 8.718 L 9.19941,14.03 C 12.5362,10.3482 15.4965,7.43123 21.5842,9.18904 18.7539,7.86711 15.9503,8.08016 13.1731,9.8282 13.212,9.77754 13.2511,9.72649 13.2905,9.67514 Z"
     fill="white"
     id="path72"
     style="fill:#ffffff;fill-opacity:1" />
  <path
     fill-rule="evenodd"
     clip-rule="evenodd"
     d="m 31.0266,27.8639 c -0.8722,0 -1.6622,-0.2252 -2.37,-0.6756 -0.7027,-0.4554 -1.261,-1.1235 -1.6747,-2.0043 -0.4087,-0.8857 -0.613,-1.9717 -0.613,-3.2578 0,-1.3212 0.2118,-2.4196 0.6355,-3.2954 0.4236,-0.8808 0.9868,-1.5389 1.6896,-1.9742 0.7078,-0.4404 1.4828,-0.6606 2.3252,-0.6606 0.6429,0 1.1787,0.1101 1.6074,0.3303 0.4336,0.2152 0.7825,0.4854 1.0467,0.8107 0.2691,0.3203 0.4735,0.6355 0.613,0.9458 h 0.0972 v -5.7801 h 3.1775 v 15.3735 h -3.1401 v -1.8466 h -0.1346 c -0.1495,0.3203 -0.3613,0.6381 -0.6355,0.9533 -0.2691,0.3103 -0.6205,0.568 -1.0541,0.7732 -0.4287,0.2052 -0.952,0.3078 -1.5701,0.3078 z m 1.0093,-2.5448 c 0.5134,0 0.9471,-0.1401 1.3009,-0.4203 0.3589,-0.2853 0.633,-0.6831 0.8224,-1.1936 0.1944,-0.5104 0.2916,-1.1084 0.2916,-1.794 0,-0.6856 -0.0947,-1.2812 -0.2841,-1.7866 -0.1894,-0.5054 -0.4635,-0.8958 -0.8224,-1.171 -0.3589,-0.2753 -0.795,-0.4129 -1.3084,-0.4129 -0.5233,0 -0.9644,0.1426 -1.3233,0.4279 -0.3588,0.2852 -0.6305,0.6806 -0.8149,1.186 -0.1844,0.5055 -0.2766,1.091 -0.2766,1.7566 0,0.6705 0.0922,1.2636 0.2766,1.779 0.1894,0.5105 0.4611,0.9108 0.8149,1.2011 0.3589,0.2852 0.8,0.4278 1.3233,0.4278 z"
     fill="white"
     id="path74"
     style="fill:#ffffff;fill-opacity:1" />
  <path
     fill-rule="evenodd"
     clip-rule="evenodd"
     d="m 18.0676,27.8939 c -0.7327,0 -1.3857,-0.1276 -1.9589,-0.3828 -0.5731,-0.2603 -1.0267,-0.6431 -1.3607,-1.1485 -0.3289,-0.5105 -0.4934,-1.146 -0.4934,-1.9067 0,-0.6406 0.1171,-1.1785 0.3514,-1.6139 0.2343,-0.4354 0.5532,-0.7857 0.957,-1.0509 0.4037,-0.2653 0.8622,-0.4655 1.3756,-0.6006 0.5184,-0.1351 1.0617,-0.2302 1.6299,-0.2852 0.6679,-0.0701 1.2062,-0.1351 1.6149,-0.1952 0.4087,-0.065 0.7052,-0.1601 0.8897,-0.2852 0.1844,-0.1252 0.2766,-0.3103 0.2766,-0.5555 v -0.0451 c 0,-0.4754 -0.1496,-0.8432 -0.4486,-1.1034 -0.2941,-0.2603 -0.7128,-0.3904 -1.256,-0.3904 -0.5732,0 -1.0293,0.1276 -1.3682,0.3829 -0.3389,0.2502 -0.5632,0.5655 -0.6729,0.9458 L 14.6583,19.419 c 0.1496,-0.7006 0.4436,-1.3062 0.8822,-1.8166 0.4387,-0.5155 1.0044,-0.9108 1.6972,-1.1861 0.6978,-0.2802 1.5052,-0.4203 2.4223,-0.4203 0.638,0 1.2486,0.075 1.8317,0.2252 0.5882,0.1501 1.109,0.3828 1.5626,0.6981 0.4585,0.3153 0.8199,0.7206 1.0841,1.2161 0.2641,0.4904 0.3962,1.0784 0.3962,1.764 v 7.7768 h -3.0204 v -1.5989 h -0.0898 c -0.1844,0.3603 -0.4311,0.6781 -0.7401,0.9533 -0.309,0.2703 -0.6804,0.483 -1.114,0.6381 -0.4336,0.1501 -0.9345,0.2252 -1.5027,0.2252 z m 0.9121,-2.2069 c 0.4685,0 0.8822,-0.0926 1.241,-0.2778 0.3589,-0.1901 0.6405,-0.4454 0.8449,-0.7656 0.2043,-0.3203 0.3065,-0.6831 0.3065,-1.0885 v -1.2236 c -0.0997,0.0651 -0.2367,0.1251 -0.4112,0.1802 -0.1695,0.05 -0.3614,0.0976 -0.5757,0.1426 -0.2143,0.04 -0.4286,0.0776 -0.6429,0.1126 -0.2144,0.03 -0.4087,0.0576 -0.5832,0.0826 -0.3738,0.055 -0.7003,0.1426 -0.9794,0.2627 -0.2791,0.1201 -0.4959,0.2828 -0.6504,0.4879 -0.1546,0.2002 -0.2318,0.4504 -0.2318,0.7507 0,0.4354 0.157,0.7682 0.471,0.9984 0.319,0.2252 0.7227,0.3378 1.2112,0.3378 z"
     fill="white"
     id="path76"
     style="fill:#ffffff;fill-opacity:1" />
  <path
     fill-rule="evenodd"
     clip-rule="evenodd"
     d="m 42.1521,27.1808 c 0.8524,0.4804 1.8691,0.7206 3.0504,0.7206 0.947,0 1.7819,-0.1451 2.5046,-0.4354 0.7277,-0.2952 1.3208,-0.7056 1.7794,-1.2311 0.4635,-0.5304 0.77,-1.151 0.9196,-1.8616 l -2.9457,-0.1952 c -0.1097,0.2903 -0.2692,0.5355 -0.4785,0.7357 -0.2094,0.2002 -0.4611,0.3503 -0.7551,0.4504 -0.2941,0.1001 -0.6181,0.1501 -0.972,0.1501 -0.5333,0 -0.9943,-0.1126 -1.3831,-0.3378 -0.3888,-0.2252 -0.6903,-0.5455 -0.9046,-0.9608 -0.2094,-0.4154 -0.314,-0.9083 -0.314,-1.4788 v -0.0075 h 7.8202 v -0.8783 c 0,-0.9809 -0.137,-1.8366 -0.4112,-2.5672 C 49.788,18.5482 49.4042,17.9377 48.9108,17.4523 48.4223,16.9668 47.8491,16.604 47.1912,16.3638 46.5383,16.1186 45.833,15.996 45.0754,15.996 c -1.1264,0 -2.1083,0.2502 -2.9457,0.7506 -0.8324,0.5005 -1.4778,1.1986 -1.9364,2.0944 -0.4585,0.8958 -0.6878,1.9367 -0.6878,3.1227 0,1.2161 0.2293,2.2695 0.6878,3.1603 0.4586,0.8858 1.1115,1.5714 1.9588,2.0568 z m 0.504,-6.4332 c 0.0192,-0.414 0.1253,-0.7918 0.3184,-1.1334 0.2094,-0.3754 0.4985,-0.6731 0.8673,-0.8933 0.3738,-0.2252 0.8025,-0.3378 1.2859,-0.3378 0.4636,0 0.8698,0.1026 1.2187,0.3077 0.3539,0.2002 0.6305,0.478 0.8299,0.8333 0.1993,0.3553 0.299,0.7631 0.299,1.2235 z"
     fill="white"
     id="path78"
     style="fill:#ffffff;fill-opacity:1" />
  <path
     d="m 55.5262,21.0104 v 6.6658 h -3.185 V 16.1461 h 3.0354 v 2.0343 h 0.1346 c 0.2542,-0.6706 0.6804,-1.2011 1.2785,-1.5914 0.5981,-0.3953 1.3233,-0.593 2.1756,-0.593 0.7975,0 1.4928,0.1751 2.0859,0.5254 0.5931,0.3503 1.0542,0.8508 1.3831,1.5014 0.329,0.6455 0.4935,1.4162 0.4935,2.312 v 7.3414 h -3.185 v -6.7709 c 0.005,-0.7056 -0.1744,-1.2561 -0.5383,-1.6515 -0.3638,-0.4003 -0.8647,-0.6005 -1.5027,-0.6005 -0.4287,0 -0.8075,0.0926 -1.1364,0.2777 -0.324,0.1852 -0.5782,0.4554 -0.7626,0.8108 -0.1794,0.3503 -0.2716,0.7731 -0.2766,1.2686 z"
     fill="white"
     id="path80"
     style="fill:#ffffff;fill-opacity:1" />
  <path
     fill-rule="evenodd"
     clip-rule="evenodd"
     d="m 66.5433,27.5111 c 0.5732,0.2552 1.2261,0.3828 1.9588,0.3828 0.5682,0 1.0691,-0.0751 1.5027,-0.2252 0.4337,-0.1551 0.805,-0.3678 1.114,-0.6381 0.309,-0.2752 0.5558,-0.593 0.7402,-0.9533 h 0.0897 v 1.5989 h 3.0204 v -7.7768 c 0,-0.6856 -0.132,-1.2736 -0.3962,-1.764 -0.2642,-0.4955 -0.6255,-0.9008 -1.0841,-1.2161 -0.4536,-0.3153 -0.9744,-0.548 -1.5625,-0.6981 -0.5832,-0.1502 -1.1938,-0.2252 -1.8318,-0.2252 -0.9171,0 -1.7245,0.1401 -2.4223,0.4203 -0.6928,0.2753 -1.2585,0.6706 -1.6971,1.1861 -0.4387,0.5104 -0.7327,1.116 -0.8822,1.8166 l 2.9456,0.2402 c 0.1097,-0.3803 0.334,-0.6956 0.6729,-0.9458 0.3389,-0.2553 0.795,-0.3829 1.3682,-0.3829 0.5433,0 0.9619,0.1301 1.256,0.3904 0.2991,0.2602 0.4486,0.628 0.4486,1.1034 v 0.0451 c 0,0.2452 -0.0922,0.4303 -0.2766,0.5555 -0.1844,0.1251 -0.481,0.2202 -0.8897,0.2852 -0.4087,0.0601 -0.947,0.1251 -1.6149,0.1952 -0.5682,0.055 -1.1115,0.1501 -1.6299,0.2852 -0.5133,0.1351 -0.9719,0.3353 -1.3756,0.6006 -0.4037,0.2652 -0.7227,0.6155 -0.957,1.0509 -0.2342,0.4354 -0.3514,0.9733 -0.3514,1.6139 0,0.7607 0.1645,1.3962 0.4935,1.9067 0.3339,0.5054 0.7875,0.8882 1.3607,1.1485 z m 4.112,-2.1019 c -0.3589,0.1852 -0.7726,0.2778 -1.2411,0.2778 -0.4885,0 -0.8922,-0.1126 -1.2112,-0.3378 -0.314,-0.2302 -0.471,-0.563 -0.471,-0.9984 0,-0.3003 0.0773,-0.5505 0.2318,-0.7507 0.1545,-0.2051 0.3713,-0.3678 0.6504,-0.4879 0.2791,-0.1201 0.6056,-0.2077 0.9794,-0.2627 0.1745,-0.025 0.3689,-0.0526 0.5832,-0.0826 0.2143,-0.035 0.4286,-0.0726 0.643,-0.1126 0.2143,-0.045 0.4062,-0.0926 0.5756,-0.1426 0.1745,-0.0551 0.3115,-0.1151 0.4112,-0.1802 v 1.2236 c 0,0.4054 -0.1021,0.7682 -0.3065,1.0885 -0.2044,0.3202 -0.486,0.5755 -0.8448,0.7656 z"
     fill="white"
     id="path82"
     style="fill:#ffffff;fill-opacity:1" />
  <path
     d="M 81.9515,27.6762 V 12.3027 h 10.3174 v 2.6799 h -7.0801 v 3.6632 h 6.5493 v 2.6798 h -6.5493 v 3.6708 h 7.11 v 2.6798 z"
     fill="white"
     id="path84"
     style="fill:#ffffff;fill-opacity:1" />
  <path
     d="m 99.3422,20.1771 -2.1083,-4.031 h -3.2896 l 3.2896,5.7651 -3.4092,5.765 h 3.2896 l 2.2279,-3.986 2.2658,3.986 h 3.252 l -3.417,-5.765 3.327,-5.7651 h -3.267 z"
     fill="white"
     id="path86"
     style="fill:#ffffff;fill-opacity:1" />
  <path
     fill-rule="evenodd"
     clip-rule="evenodd"
     d="M 106.451,32 V 16.1461 h 3.14 v 1.9367 h 0.142 c 0.14,-0.3103 0.342,-0.6255 0.606,-0.9458 0.269,-0.3253 0.618,-0.5955 1.046,-0.8107 0.434,-0.2202 0.972,-0.3303 1.615,-0.3303 0.838,0 1.61,0.2202 2.318,0.6606 0.708,0.4353 1.274,1.0934 1.697,1.9742 0.424,0.8758 0.636,1.9742 0.636,3.2954 0,1.2861 -0.207,2.3721 -0.621,3.2578 -0.409,0.8808 -0.967,1.5489 -1.675,2.0043 -0.702,0.4504 -1.49,0.6756 -2.362,0.6756 -0.618,0 -1.144,-0.1026 -1.578,-0.3078 -0.428,-0.2052 -0.78,-0.4629 -1.054,-0.7732 -0.274,-0.3152 -0.483,-0.633 -0.628,-0.9533 h -0.097 V 32 Z m 3.118,-10.0888 c 0,0.6856 0.094,1.2836 0.284,1.794 0.189,0.5105 0.463,0.9083 0.822,1.1936 0.359,0.2802 0.795,0.4203 1.309,0.4203 0.518,0 0.957,-0.1426 1.315,-0.4278 0.359,-0.2903 0.631,-0.6906 0.815,-1.2011 0.19,-0.5154 0.284,-1.1085 0.284,-1.779 0,-0.6656 -0.092,-1.2511 -0.276,-1.7566 -0.185,-0.5054 -0.456,-0.9008 -0.815,-1.186 -0.359,-0.2853 -0.8,-0.4279 -1.323,-0.4279 -0.519,0 -0.957,0.1376 -1.316,0.4129 -0.354,0.2752 -0.626,0.6656 -0.815,1.171 -0.19,0.5054 -0.284,1.101 -0.284,1.7866 z"
     fill="white"
     id="path88"
     style="fill:#ffffff;fill-opacity:1" />
  <path
     d="M 122.748,27.6762 V 12.3027 h -3.185 v 15.3735 z"
     fill="white"
     id="path90"
     style="fill:#ffffff;fill-opacity:1" />
  <path
     fill-rule="evenodd"
     clip-rule="evenodd"
     d="m 130.278,27.9014 c -1.162,0 -2.166,-0.2477 -3.013,-0.7431 -0.843,-0.5005 -1.493,-1.1961 -1.952,-2.0869 -0.458,-0.8958 -0.687,-1.9342 -0.687,-3.1152 0,-1.191 0.229,-2.232 0.687,-3.1227 0.459,-0.8958 1.109,-1.5914 1.952,-2.0869 0.847,-0.5004 1.851,-0.7506 3.013,-0.7506 1.161,0 2.163,0.2502 3.005,0.7506 0.848,0.4955 1.5,1.1911 1.959,2.0869 0.459,0.8907 0.688,1.9317 0.688,3.1227 0,1.181 -0.229,2.2194 -0.688,3.1152 -0.459,0.8908 -1.111,1.5864 -1.959,2.0869 -0.842,0.4954 -1.844,0.7431 -3.005,0.7431 z m 0.015,-2.4772 c 0.528,0 0.969,-0.1501 1.323,-0.4504 0.354,-0.3052 0.621,-0.7206 0.8,-1.246 0.184,-0.5255 0.277,-1.1235 0.277,-1.7941 0,-0.6706 -0.093,-1.2686 -0.277,-1.7941 -0.179,-0.5255 -0.446,-0.9408 -0.8,-1.2461 -0.354,-0.3052 -0.795,-0.4579 -1.323,-0.4579 -0.534,0 -0.982,0.1527 -1.346,0.4579 -0.359,0.3053 -0.631,0.7206 -0.815,1.2461 -0.179,0.5255 -0.269,1.1235 -0.269,1.7941 0,0.6706 0.09,1.2686 0.269,1.7941 0.184,0.5254 0.456,0.9408 0.815,1.246 0.364,0.3003 0.812,0.4504 1.346,0.4504 z"
     fill="white"
     id="path92"
     style="fill:#ffffff;fill-opacity:1" />
  <path
     d="m 140.878,16.1461 h -3.088 v 11.5301 h 3.185 V 21.153 c 0,-0.4704 0.105,-0.8858 0.314,-1.2461 0.215,-0.3603 0.504,-0.6406 0.867,-0.8407 0.369,-0.2052 0.788,-0.3078 1.257,-0.3078 0.219,0 0.461,0.0175 0.725,0.0525 0.264,0.0351 0.471,0.0751 0.62,0.1201 v -2.8374 c -0.139,-0.0351 -0.301,-0.0626 -0.486,-0.0826 -0.184,-0.02 -0.356,-0.03 -0.516,-0.03 -0.643,0 -1.211,0.1851 -1.704,0.5555 -0.494,0.3653 -0.845,0.9057 -1.054,1.6214 h -0.12 z"
     fill="white"
     id="path94"
     style="fill:#ffffff;fill-opacity:1" />
  <path
     id="path96"
     style="fill:#ffffff;fill-opacity:1;paint-order:markers fill stroke"
     d="M 150.76562 15.996094 C 149.63963 15.996094 148.65731 16.245694 147.82031 16.746094 C 146.98731 17.246593 146.34377 17.945998 145.88477 18.841797 C 145.42677 19.737596 145.19531 20.776892 145.19531 21.962891 C 145.19531 23.178989 145.42677 24.232248 145.88477 25.123047 C 145.98991 25.325959 146.10496 25.517317 146.23047 25.699219 L 155.56641 25.699219 C 155.8147 25.298184 155.99529 24.857969 156.09766 24.373047 L 153.15039 24.177734 C 153.04139 24.468034 152.88283 24.713863 152.67383 24.914062 C 152.46383 25.114262 152.21197 25.263181 151.91797 25.363281 C 151.62297 25.463381 151.29831 25.513672 150.94531 25.513672 C 150.41131 25.513672 149.9515 25.400981 149.5625 25.175781 C 149.1745 24.950581 148.8722 24.630143 148.6582 24.214844 C 148.4492 23.799444 148.34375 23.306828 148.34375 22.736328 L 148.34375 22.728516 L 156.16406 22.728516 L 156.16406 21.851562 C 156.16406 20.870663 156.02791 20.013802 155.75391 19.283203 C 155.47991 18.547504 155.09456 17.938525 154.60156 17.453125 C 154.11256 16.967625 153.54081 16.603481 152.88281 16.363281 C 152.22981 16.118081 151.52362 15.996094 150.76562 15.996094 z M 150.81836 18.382812 C 151.28136 18.382813 151.68811 18.486306 152.03711 18.691406 C 152.39111 18.891606 152.66819 19.168138 152.86719 19.523438 C 153.06619 19.878737 153.16602 20.287647 153.16602 20.748047 L 148.34766 20.748047 C 148.36666 20.334047 148.47106 19.954881 148.66406 19.613281 C 148.87406 19.237882 149.1642 18.940903 149.5332 18.720703 C 149.9062 18.495503 150.33436 18.382812 150.81836 18.382812 z " />
  <path
     id="path98"
     style="fill:#ffffff;fill-opacity:1;paint-order:fill markers stroke"
     d="M 163.99805 15.980469 C 163.35505 15.980469 162.78792 16.16671 162.29492 16.537109 C 161.80092 16.902409 161.44828 17.442504 161.23828 18.158203 L 161.11914 18.158203 L 161.11914 16.146484 L 158.03125 16.146484 L 158.03125 25.699219 L 161.2168 25.699219 L 161.2168 21.152344 C 161.2168 20.681944 161.32225 20.26655 161.53125 19.90625 C 161.74525 19.54595 162.03444 19.266506 162.39844 19.066406 C 162.76744 18.861206 163.1863 18.757812 163.6543 18.757812 C 163.8743 18.757812 164.11491 18.775547 164.37891 18.810547 C 164.64391 18.845647 164.85 18.886641 165 18.931641 L 165 16.09375 C 164.86 16.05865 164.69767 16.031719 164.51367 16.011719 C 164.32967 15.991719 164.15805 15.980469 163.99805 15.980469 z " />
  <g
     aria-label="Beta"
     id="text1064"
     style="font-size:16px;font-family:Gidugu;-inkscape-font-specification:Gidugu;fill:#ff02e8">
    <path
       d="m 145.95046,28.252547 h 3.17438 q 1.93594,0 2.51957,0.58363 0.58363,0.58363 0.58363,1.352313 0,1.16726 -1.29537,1.75089 1.67971,0.483985 1.67971,1.893238 0,0.825623 -0.45551,1.395018 -0.44128,0.55516 -1.06762,0.711744 -0.6121,0.142348 -2.41993,0.142348 h -2.71886 z m 1.60854,1.195729 v 1.964413 h 1.06762 q 1.2242,0 1.63701,-0.156583 0.41281,-0.170819 0.41281,-0.839858 0,-0.626335 -0.3701,-0.797153 -0.37011,-0.170819 -1.8363,-0.170819 z m 0,3.160143 v 2.263345 h 1.49467 q 1.09608,0 1.49466,-0.199288 0.41281,-0.199289 0.41281,-0.911032 0,-0.683274 -0.44128,-0.911032 -0.44128,-0.241993 -1.66548,-0.241993 z"
       id="path8999" />
    <path
       d="m 157.05366,34.345074 1.5089,0.256227 q -0.55516,1.580072 -2.47687,1.580072 -1.5089,0 -2.1637,-0.839858 -0.64057,-0.854093 -0.64057,-2.064057 0,-1.309609 0.69751,-2.149466 0.71174,-0.839858 1.93594,-0.839858 2.76157,0 2.76157,3.316726 h -3.84342 q 0.0854,1.580071 1.26691,1.580071 0.72597,0 0.95373,-0.839857 z m 0.11388,-1.537367 q -0.0569,-1.494662 -1.15302,-1.494662 -1.12456,0 -1.12456,1.494662 z"
       id="path9001" />
    <path
       d="m 162.40598,30.416248 v 1.067616 h -1.02491 v 2.405694 q 0,0.725978 0.0854,0.953736 0.0854,0.213523 0.31317,0.213523 0.21352,0 0.64057,-0.156583 l 0.11388,1.053381 q -0.52669,0.227758 -1.20997,0.227758 -0.96797,0 -1.23843,-0.455517 -0.25623,-0.46975 -0.25623,-1.63701 v -2.604982 h -0.69751 v -1.067616 h 0.69751 v -1.153025 l 1.5516,-0.882562 v 2.035587 z"
       id="path9003" />
    <path
       d="m 164.47004,32.039024 -1.36655,-0.241993 q 0.42705,-1.508897 2.46264,-1.508897 1.45195,0 1.93594,0.483986 0.49822,0.483986 0.49822,1.679715 l -0.0142,1.765125 q 0,1.224199 0.28469,1.822064 h -1.46619 q -0.0712,-0.199289 -0.18505,-0.58363 -0.76868,0.725979 -1.77936,0.725979 -0.88256,0 -1.40925,-0.455517 -0.51246,-0.455516 -0.51246,-1.181494 0,-0.58363 0.3274,-1.024911 0.34164,-0.441281 1.75089,-0.725979 1.08185,-0.185053 1.5089,-0.370107 v -0.227758 q 0,-0.882562 -1.05338,-0.882562 -0.71175,0 -0.98221,0.725979 z m 2.03559,1.238434 q -0.72598,0.142349 -1.73666,0.483986 -0.3274,0.227758 -0.3274,0.612099 0,0.441281 0.27047,0.654805 0.27046,0.213523 0.58362,0.213523 1.20997,0 1.20997,-1.580071 z"
       id="path9005" />
  </g>
  <rect
     style="fill:#7a7a7a;fill-opacity:0;stroke:#ff02e8;stroke-width:0.837379;stroke-linejoin:round;stroke-dasharray:none;stroke-opacity:1;paint-order:fill markers stroke"
     id="rect2414"
     width="33.527878"
     height="13.870496"
     x="140.01794"
     y="25.698744"
     ry="4.3770614" />
</svg>
